<mxfile host="app.diagrams.net" modified="2020-10-17T19:02:33.596Z" agent="5.0 (X11)" etag="GPjGsi5qLLi-jTI3ZxSj" version="13.8.0" type="github">
  <diagram id="9BNLUhRl49KtjUEpaJ9v" name="Page-1">
    <mxGraphModel dx="3136" dy="654" grid="1" gridSize="10" guides="1" tooltips="1" connect="1" arrows="1" fold="1" page="0" pageScale="1" pageWidth="850" pageHeight="1100" math="0" shadow="0">
      <root>
        <mxCell id="0" />
        <mxCell id="1" parent="0" />
        <mxCell id="SLb6tqs1ZrY8k5B9FdxR-1" value="&lt;div style=&quot;font-size: 11px&quot;&gt;Drive class was built to recieve input from the blkid command and then store the drive in a format &lt;br&gt;&lt;/div&gt;&lt;div style=&quot;font-size: 11px&quot;&gt;that enables&amp;nbsp; smugglebus to easily &lt;br style=&quot;font-size: 11px&quot;&gt;&lt;/div&gt;&lt;div style=&quot;font-size: 11px&quot;&gt;interact with it&lt;br style=&quot;font-size: 11px&quot;&gt;&lt;/div&gt;" style="whiteSpace=wrap;html=1;shape=mxgraph.basic.cloud_callout;direction=east;labelPosition=center;verticalLabelPosition=middle;align=center;verticalAlign=middle;fontSize=11;" vertex="1" parent="1">
          <mxGeometry x="-60" y="472" width="340" height="226" as="geometry" />
        </mxCell>
        <mxCell id="SLb6tqs1ZrY8k5B9FdxR-2" value="Invoke &lt;b&gt;main()&lt;/b&gt;" style="ellipse;whiteSpace=wrap;html=1;fontSize=11;" vertex="1" parent="1">
          <mxGeometry x="-510" y="416" width="140" height="70" as="geometry" />
        </mxCell>
        <mxCell id="SLb6tqs1ZrY8k5B9FdxR-3" value="" style="endArrow=block;endFill=1;html=1;edgeStyle=orthogonalEdgeStyle;align=left;verticalAlign=top;fontSize=11;exitX=0.5;exitY=1;exitDx=0;exitDy=0;" edge="1" parent="1" source="SLb6tqs1ZrY8k5B9FdxR-2">
          <mxGeometry x="-1" relative="1" as="geometry">
            <mxPoint x="-300" y="460" as="sourcePoint" />
            <mxPoint x="-440" y="570" as="targetPoint" />
          </mxGeometry>
        </mxCell>
        <mxCell id="SLb6tqs1ZrY8k5B9FdxR-4" value="" style="edgeStyle=orthogonalEdgeStyle;rounded=0;orthogonalLoop=1;jettySize=auto;html=1;fontSize=11;" edge="1" parent="1">
          <mxGeometry relative="1" as="geometry">
            <mxPoint x="-440" y="490" as="sourcePoint" />
            <mxPoint x="-440" y="560" as="targetPoint" />
          </mxGeometry>
        </mxCell>
        <mxCell id="SLb6tqs1ZrY8k5B9FdxR-5" value="Read and parse args user has provided" style="rounded=1;whiteSpace=wrap;html=1;absoluteArcSize=1;arcSize=14;strokeWidth=2;fontSize=11;" vertex="1" parent="1">
          <mxGeometry x="-490" y="560" width="100" height="50" as="geometry" />
        </mxCell>
        <mxCell id="SLb6tqs1ZrY8k5B9FdxR-6" value="" style="edgeStyle=orthogonalEdgeStyle;rounded=0;orthogonalLoop=1;jettySize=auto;html=1;fontSize=11;" edge="1" parent="1">
          <mxGeometry relative="1" as="geometry">
            <mxPoint x="-440" y="610" as="sourcePoint" />
            <mxPoint x="-440" y="680" as="targetPoint" />
          </mxGeometry>
        </mxCell>
        <mxCell id="SLb6tqs1ZrY8k5B9FdxR-7" value="&lt;div&gt;&lt;b&gt;grab_drives()&lt;/b&gt;&lt;/div&gt;&lt;div&gt;Read in data returned by running sudo blkid, and then returns it as a list&lt;br&gt;&lt;/div&gt;" style="rounded=1;whiteSpace=wrap;html=1;absoluteArcSize=1;arcSize=14;strokeWidth=2;fontSize=11;" vertex="1" parent="1">
          <mxGeometry x="-520" y="680" width="160" height="70" as="geometry" />
        </mxCell>
        <mxCell id="SLb6tqs1ZrY8k5B9FdxR-8" value="" style="edgeStyle=orthogonalEdgeStyle;rounded=0;orthogonalLoop=1;jettySize=auto;html=1;fontSize=11;" edge="1" parent="1">
          <mxGeometry relative="1" as="geometry">
            <mxPoint x="-440" y="750" as="sourcePoint" />
            <mxPoint x="-440" y="820" as="targetPoint" />
          </mxGeometry>
        </mxCell>
        <mxCell id="SLb6tqs1ZrY8k5B9FdxR-9" value="&lt;div&gt;&lt;b&gt;store_drives(&lt;/b&gt;string: raw_drives&lt;b&gt;)&lt;/b&gt;&lt;/div&gt;&lt;div&gt;loop through every drive returned by grab drive, instantiate a Drive object, and then append it to a list. Returns the list of Drive objects. &lt;br&gt;&lt;/div&gt;" style="rounded=1;whiteSpace=wrap;html=1;absoluteArcSize=1;arcSize=14;strokeWidth=2;fontSize=11;" vertex="1" parent="1">
          <mxGeometry x="-550" y="820" width="220" height="70" as="geometry" />
        </mxCell>
        <mxCell id="SLb6tqs1ZrY8k5B9FdxR-10" value="Drive" style="swimlane;fontStyle=1;align=center;verticalAlign=top;childLayout=stackLayout;horizontal=1;startSize=26;horizontalStack=0;resizeParent=1;resizeParentMax=0;resizeLast=0;collapsible=1;marginBottom=0;" vertex="1" parent="1">
          <mxGeometry x="-200" y="674" width="160" height="216" as="geometry" />
        </mxCell>
        <mxCell id="SLb6tqs1ZrY8k5B9FdxR-11" value="+ field: source" style="text;strokeColor=none;fillColor=none;align=left;verticalAlign=top;spacingLeft=4;spacingRight=4;overflow=hidden;rotatable=0;points=[[0,0.5],[1,0.5]];portConstraint=eastwest;" vertex="1" parent="SLb6tqs1ZrY8k5B9FdxR-10">
          <mxGeometry y="26" width="160" height="26" as="geometry" />
        </mxCell>
        <mxCell id="SLb6tqs1ZrY8k5B9FdxR-12" value="" style="line;strokeWidth=1;fillColor=none;align=left;verticalAlign=middle;spacingTop=-1;spacingLeft=3;spacingRight=3;rotatable=0;labelPosition=right;points=[];portConstraint=eastwest;" vertex="1" parent="SLb6tqs1ZrY8k5B9FdxR-10">
          <mxGeometry y="52" width="160" height="8" as="geometry" />
        </mxCell>
        <mxCell id="SLb6tqs1ZrY8k5B9FdxR-13" value="+ field: fs" style="text;strokeColor=none;fillColor=none;align=left;verticalAlign=top;spacingLeft=4;spacingRight=4;overflow=hidden;rotatable=0;points=[[0,0.5],[1,0.5]];portConstraint=eastwest;" vertex="1" parent="SLb6tqs1ZrY8k5B9FdxR-10">
          <mxGeometry y="60" width="160" height="26" as="geometry" />
        </mxCell>
        <mxCell id="SLb6tqs1ZrY8k5B9FdxR-14" value="+ method: set_source" style="text;strokeColor=none;fillColor=none;align=left;verticalAlign=top;spacingLeft=4;spacingRight=4;overflow=hidden;rotatable=0;points=[[0,0.5],[1,0.5]];portConstraint=eastwest;" vertex="1" parent="SLb6tqs1ZrY8k5B9FdxR-10">
          <mxGeometry y="86" width="160" height="26" as="geometry" />
        </mxCell>
        <mxCell id="SLb6tqs1ZrY8k5B9FdxR-15" value="+ method: get_source" style="text;strokeColor=none;fillColor=none;align=left;verticalAlign=top;spacingLeft=4;spacingRight=4;overflow=hidden;rotatable=0;points=[[0,0.5],[1,0.5]];portConstraint=eastwest;" vertex="1" parent="SLb6tqs1ZrY8k5B9FdxR-10">
          <mxGeometry y="112" width="160" height="26" as="geometry" />
        </mxCell>
        <mxCell id="SLb6tqs1ZrY8k5B9FdxR-16" value="+ method: set_fs" style="text;strokeColor=none;fillColor=none;align=left;verticalAlign=top;spacingLeft=4;spacingRight=4;overflow=hidden;rotatable=0;points=[[0,0.5],[1,0.5]];portConstraint=eastwest;" vertex="1" parent="SLb6tqs1ZrY8k5B9FdxR-10">
          <mxGeometry y="138" width="160" height="26" as="geometry" />
        </mxCell>
        <mxCell id="SLb6tqs1ZrY8k5B9FdxR-17" value="+ method:get_fs" style="text;strokeColor=none;fillColor=none;align=left;verticalAlign=top;spacingLeft=4;spacingRight=4;overflow=hidden;rotatable=0;points=[[0,0.5],[1,0.5]];portConstraint=eastwest;" vertex="1" parent="SLb6tqs1ZrY8k5B9FdxR-10">
          <mxGeometry y="164" width="160" height="26" as="geometry" />
        </mxCell>
        <mxCell id="SLb6tqs1ZrY8k5B9FdxR-18" value="+ method: is_mounted" style="text;strokeColor=none;fillColor=none;align=left;verticalAlign=top;spacingLeft=4;spacingRight=4;overflow=hidden;rotatable=0;points=[[0,0.5],[1,0.5]];portConstraint=eastwest;" vertex="1" parent="SLb6tqs1ZrY8k5B9FdxR-10">
          <mxGeometry y="190" width="160" height="26" as="geometry" />
        </mxCell>
        <mxCell id="SLb6tqs1ZrY8k5B9FdxR-19" value="" style="endArrow=block;endFill=1;html=1;edgeStyle=orthogonalEdgeStyle;align=left;verticalAlign=top;fontSize=11;exitX=0.5;exitY=1;exitDx=0;exitDy=0;" edge="1" parent="1" source="SLb6tqs1ZrY8k5B9FdxR-9">
          <mxGeometry x="-1" relative="1" as="geometry">
            <mxPoint x="-460" y="910" as="sourcePoint" />
            <mxPoint x="-290" y="990" as="targetPoint" />
            <Array as="points">
              <mxPoint x="-440" y="940" />
              <mxPoint x="-290" y="940" />
            </Array>
          </mxGeometry>
        </mxCell>
        <mxCell id="SLb6tqs1ZrY8k5B9FdxR-20" value="&lt;div&gt;Drive objects&lt;/div&gt;&lt;div&gt; are instantiated&lt;/div&gt;" style="endArrow=block;endFill=1;html=1;edgeStyle=orthogonalEdgeStyle;align=left;verticalAlign=top;fontSize=11;exitX=0.498;exitY=0.984;exitDx=0;exitDy=0;exitPerimeter=0;" edge="1" parent="1" source="SLb6tqs1ZrY8k5B9FdxR-18">
          <mxGeometry x="0.2727" y="-20" relative="1" as="geometry">
            <mxPoint x="-120" y="910" as="sourcePoint" />
            <mxPoint x="-260" y="990" as="targetPoint" />
            <Array as="points">
              <mxPoint x="-120" y="940" />
              <mxPoint x="-260" y="940" />
            </Array>
            <mxPoint as="offset" />
          </mxGeometry>
        </mxCell>
        <mxCell id="SLb6tqs1ZrY8k5B9FdxR-21" style="edgeStyle=orthogonalEdgeStyle;rounded=0;orthogonalLoop=1;jettySize=auto;html=1;entryX=0.5;entryY=0;entryDx=0;entryDy=0;fontSize=11;" edge="1" parent="1" source="SLb6tqs1ZrY8k5B9FdxR-27" target="SLb6tqs1ZrY8k5B9FdxR-29">
          <mxGeometry relative="1" as="geometry" />
        </mxCell>
        <mxCell id="SLb6tqs1ZrY8k5B9FdxR-22" style="edgeStyle=orthogonalEdgeStyle;rounded=0;orthogonalLoop=1;jettySize=auto;html=1;entryX=0.5;entryY=0;entryDx=0;entryDy=0;fontSize=11;" edge="1" parent="1" source="SLb6tqs1ZrY8k5B9FdxR-27" target="SLb6tqs1ZrY8k5B9FdxR-31">
          <mxGeometry relative="1" as="geometry" />
        </mxCell>
        <mxCell id="SLb6tqs1ZrY8k5B9FdxR-23" style="edgeStyle=orthogonalEdgeStyle;rounded=0;orthogonalLoop=1;jettySize=auto;html=1;entryX=0.5;entryY=0;entryDx=0;entryDy=0;fontSize=11;" edge="1" parent="1" source="SLb6tqs1ZrY8k5B9FdxR-27" target="SLb6tqs1ZrY8k5B9FdxR-33">
          <mxGeometry relative="1" as="geometry" />
        </mxCell>
        <mxCell id="SLb6tqs1ZrY8k5B9FdxR-24" style="edgeStyle=orthogonalEdgeStyle;rounded=0;orthogonalLoop=1;jettySize=auto;html=1;entryX=0.5;entryY=0;entryDx=0;entryDy=0;fontSize=11;" edge="1" parent="1" source="SLb6tqs1ZrY8k5B9FdxR-27" target="SLb6tqs1ZrY8k5B9FdxR-35">
          <mxGeometry relative="1" as="geometry" />
        </mxCell>
        <mxCell id="SLb6tqs1ZrY8k5B9FdxR-25" style="edgeStyle=orthogonalEdgeStyle;rounded=0;orthogonalLoop=1;jettySize=auto;html=1;entryX=0.5;entryY=0;entryDx=0;entryDy=0;fontSize=11;" edge="1" parent="1" source="SLb6tqs1ZrY8k5B9FdxR-27" target="SLb6tqs1ZrY8k5B9FdxR-37">
          <mxGeometry relative="1" as="geometry" />
        </mxCell>
        <mxCell id="SLb6tqs1ZrY8k5B9FdxR-26" style="edgeStyle=orthogonalEdgeStyle;rounded=0;orthogonalLoop=1;jettySize=auto;html=1;entryX=0.5;entryY=0;entryDx=0;entryDy=0;fontSize=11;" edge="1" parent="1" source="SLb6tqs1ZrY8k5B9FdxR-27" target="SLb6tqs1ZrY8k5B9FdxR-39">
          <mxGeometry relative="1" as="geometry" />
        </mxCell>
        <mxCell id="SLb6tqs1ZrY8k5B9FdxR-27" value="&lt;div&gt;Execute in certain &lt;br&gt;&lt;/div&gt;&lt;div&gt;mode based off of flag that user provided &lt;br&gt;&lt;/div&gt;&lt;div&gt;as a sys arg&lt;/div&gt;" style="strokeWidth=2;html=1;shape=mxgraph.flowchart.decision;whiteSpace=wrap;fontSize=11;" vertex="1" parent="1">
          <mxGeometry x="-350" y="975" width="150" height="150" as="geometry" />
        </mxCell>
        <mxCell id="SLb6tqs1ZrY8k5B9FdxR-28" style="edgeStyle=orthogonalEdgeStyle;rounded=0;orthogonalLoop=1;jettySize=auto;html=1;fontSize=11;" edge="1" parent="1" source="SLb6tqs1ZrY8k5B9FdxR-29" target="SLb6tqs1ZrY8k5B9FdxR-44">
          <mxGeometry relative="1" as="geometry" />
        </mxCell>
        <mxCell id="SLb6tqs1ZrY8k5B9FdxR-29" value="&lt;b&gt;extract_hives&lt;/b&gt;" style="rounded=1;whiteSpace=wrap;html=1;absoluteArcSize=1;arcSize=14;strokeWidth=2;fontSize=11;" vertex="1" parent="1">
          <mxGeometry x="-1090" y="1310" width="100" height="50" as="geometry" />
        </mxCell>
        <mxCell id="SLb6tqs1ZrY8k5B9FdxR-30" style="edgeStyle=orthogonalEdgeStyle;rounded=0;orthogonalLoop=1;jettySize=auto;html=1;exitX=0.5;exitY=1;exitDx=0;exitDy=0;entryX=0.5;entryY=0;entryDx=0;entryDy=0;fontSize=11;" edge="1" parent="1" source="SLb6tqs1ZrY8k5B9FdxR-31" target="SLb6tqs1ZrY8k5B9FdxR-45">
          <mxGeometry relative="1" as="geometry" />
        </mxCell>
        <mxCell id="SLb6tqs1ZrY8k5B9FdxR-31" value="&lt;b&gt;print_drives&lt;/b&gt;" style="rounded=1;whiteSpace=wrap;html=1;absoluteArcSize=1;arcSize=14;strokeWidth=2;fontSize=11;" vertex="1" parent="1">
          <mxGeometry x="-810" y="1310" width="100" height="50" as="geometry" />
        </mxCell>
        <mxCell id="SLb6tqs1ZrY8k5B9FdxR-32" style="edgeStyle=orthogonalEdgeStyle;rounded=0;orthogonalLoop=1;jettySize=auto;html=1;exitX=0.5;exitY=1;exitDx=0;exitDy=0;entryX=0.5;entryY=0;entryDx=0;entryDy=0;fontSize=11;" edge="1" parent="1" source="SLb6tqs1ZrY8k5B9FdxR-33" target="SLb6tqs1ZrY8k5B9FdxR-42">
          <mxGeometry relative="1" as="geometry" />
        </mxCell>
        <mxCell id="SLb6tqs1ZrY8k5B9FdxR-33" value="&lt;b&gt;sticky_keyz&lt;/b&gt;" style="rounded=1;whiteSpace=wrap;html=1;absoluteArcSize=1;arcSize=14;strokeWidth=2;fontSize=11;" vertex="1" parent="1">
          <mxGeometry x="-530" y="1310" width="100" height="50" as="geometry" />
        </mxCell>
        <mxCell id="SLb6tqs1ZrY8k5B9FdxR-34" style="edgeStyle=orthogonalEdgeStyle;rounded=0;orthogonalLoop=1;jettySize=auto;html=1;exitX=0.5;exitY=1;exitDx=0;exitDy=0;fontSize=11;" edge="1" parent="1" source="SLb6tqs1ZrY8k5B9FdxR-35" target="SLb6tqs1ZrY8k5B9FdxR-43">
          <mxGeometry relative="1" as="geometry" />
        </mxCell>
        <mxCell id="SLb6tqs1ZrY8k5B9FdxR-35" value="&lt;b&gt;remove_sticky_keyz&lt;/b&gt;" style="rounded=1;whiteSpace=wrap;html=1;absoluteArcSize=1;arcSize=14;strokeWidth=2;fontSize=11;" vertex="1" parent="1">
          <mxGeometry x="-150" y="1310" width="140" height="50" as="geometry" />
        </mxCell>
        <mxCell id="SLb6tqs1ZrY8k5B9FdxR-36" style="edgeStyle=orthogonalEdgeStyle;rounded=0;orthogonalLoop=1;jettySize=auto;html=1;entryX=0.5;entryY=0;entryDx=0;entryDy=0;fontSize=11;" edge="1" parent="1" source="SLb6tqs1ZrY8k5B9FdxR-37" target="SLb6tqs1ZrY8k5B9FdxR-40">
          <mxGeometry relative="1" as="geometry" />
        </mxCell>
        <mxCell id="SLb6tqs1ZrY8k5B9FdxR-37" value="&lt;b&gt;system_shell&lt;/b&gt;" style="rounded=1;whiteSpace=wrap;html=1;absoluteArcSize=1;arcSize=14;strokeWidth=2;fontSize=11;" vertex="1" parent="1">
          <mxGeometry x="150" y="1310" width="100" height="50" as="geometry" />
        </mxCell>
        <mxCell id="SLb6tqs1ZrY8k5B9FdxR-38" style="edgeStyle=orthogonalEdgeStyle;rounded=0;orthogonalLoop=1;jettySize=auto;html=1;entryX=0.5;entryY=0;entryDx=0;entryDy=0;fontSize=11;" edge="1" parent="1" source="SLb6tqs1ZrY8k5B9FdxR-39" target="SLb6tqs1ZrY8k5B9FdxR-41">
          <mxGeometry relative="1" as="geometry" />
        </mxCell>
        <mxCell id="SLb6tqs1ZrY8k5B9FdxR-39" value="&lt;b&gt;remove_system_shell&lt;/b&gt;" style="rounded=1;whiteSpace=wrap;html=1;absoluteArcSize=1;arcSize=14;strokeWidth=2;fontSize=11;" vertex="1" parent="1">
          <mxGeometry x="410" y="1310" width="140" height="50" as="geometry" />
        </mxCell>
        <mxCell id="SLb6tqs1ZrY8k5B9FdxR-56" style="edgeStyle=orthogonalEdgeStyle;rounded=0;orthogonalLoop=1;jettySize=auto;html=1;entryX=0.5;entryY=0;entryDx=0;entryDy=0;" edge="1" parent="1" source="SLb6tqs1ZrY8k5B9FdxR-40" target="SLb6tqs1ZrY8k5B9FdxR-50">
          <mxGeometry relative="1" as="geometry" />
        </mxCell>
        <mxCell id="SLb6tqs1ZrY8k5B9FdxR-40" value="&lt;div&gt;&lt;b&gt;ceck_for_windrives(&lt;/b&gt;list: raw_drives&lt;b&gt;)&lt;/b&gt;&lt;/div&gt;&lt;div&gt;Prints out a list of connected target drives. Drives can be selected by typeing the number of the order they are printed in. ie. selecting drive 0 will select and target the first drive that was printed out.&lt;br&gt;&lt;b&gt;&lt;/b&gt;&lt;/div&gt;" style="rounded=1;whiteSpace=wrap;html=1;absoluteArcSize=1;arcSize=14;strokeWidth=2;fontSize=11;" vertex="1" parent="1">
          <mxGeometry x="80" y="1480" width="240" height="110" as="geometry" />
        </mxCell>
        <mxCell id="SLb6tqs1ZrY8k5B9FdxR-57" style="edgeStyle=orthogonalEdgeStyle;rounded=0;orthogonalLoop=1;jettySize=auto;html=1;entryX=0.5;entryY=0;entryDx=0;entryDy=0;" edge="1" parent="1" source="SLb6tqs1ZrY8k5B9FdxR-41" target="SLb6tqs1ZrY8k5B9FdxR-51">
          <mxGeometry relative="1" as="geometry" />
        </mxCell>
        <mxCell id="SLb6tqs1ZrY8k5B9FdxR-41" value="&lt;div&gt;&lt;b&gt;ceck_for_windrives(&lt;/b&gt;list: raw_drives&lt;b&gt;)&lt;/b&gt;&lt;/div&gt;&lt;div&gt;Prints out a list of connected target drives. Drives can be selected by typeing the number of the order they are printed in. ie. selecting drive 0 will select and target the first drive that was printed out.&lt;br&gt;&lt;b&gt;&lt;/b&gt;&lt;/div&gt;" style="rounded=1;whiteSpace=wrap;html=1;absoluteArcSize=1;arcSize=14;strokeWidth=2;fontSize=11;" vertex="1" parent="1">
          <mxGeometry x="360" y="1480" width="240" height="110" as="geometry" />
        </mxCell>
        <mxCell id="SLb6tqs1ZrY8k5B9FdxR-54" style="edgeStyle=orthogonalEdgeStyle;rounded=0;orthogonalLoop=1;jettySize=auto;html=1;entryX=0.5;entryY=0;entryDx=0;entryDy=0;" edge="1" parent="1" source="SLb6tqs1ZrY8k5B9FdxR-42" target="SLb6tqs1ZrY8k5B9FdxR-48">
          <mxGeometry relative="1" as="geometry" />
        </mxCell>
        <mxCell id="SLb6tqs1ZrY8k5B9FdxR-42" value="&lt;div&gt;&lt;b&gt;ceck_for_windrives(&lt;/b&gt;list: raw_drives&lt;b&gt;)&lt;/b&gt;&lt;/div&gt;&lt;div&gt;Prints out a list of connected target drives. Drives can be selected by typeing the number of the order they are printed in. ie. selecting drive 0 will select and target the first drive that was printed out.&lt;br&gt;&lt;b&gt;&lt;/b&gt;&lt;/div&gt;" style="rounded=1;whiteSpace=wrap;html=1;absoluteArcSize=1;arcSize=14;strokeWidth=2;fontSize=11;" vertex="1" parent="1">
          <mxGeometry x="-600" y="1480" width="240" height="110" as="geometry" />
        </mxCell>
        <mxCell id="SLb6tqs1ZrY8k5B9FdxR-55" style="edgeStyle=orthogonalEdgeStyle;rounded=0;orthogonalLoop=1;jettySize=auto;html=1;entryX=0.5;entryY=0;entryDx=0;entryDy=0;" edge="1" parent="1" source="SLb6tqs1ZrY8k5B9FdxR-43" target="SLb6tqs1ZrY8k5B9FdxR-49">
          <mxGeometry relative="1" as="geometry" />
        </mxCell>
        <mxCell id="SLb6tqs1ZrY8k5B9FdxR-43" value="&lt;div&gt;&lt;b&gt;ceck_for_windrives(&lt;/b&gt;list: raw_drives&lt;b&gt;)&lt;/b&gt;&lt;/div&gt;&lt;div&gt;Prints out a list of connected target drives. Drives can be selected by typeing the number of the order they are printed in. ie. selecting drive 0 will select and target the first drive that was printed out.&lt;br&gt;&lt;b&gt;&lt;/b&gt;&lt;/div&gt;" style="rounded=1;whiteSpace=wrap;html=1;absoluteArcSize=1;arcSize=14;strokeWidth=2;fontSize=11;" vertex="1" parent="1">
          <mxGeometry x="-200" y="1480" width="240" height="110" as="geometry" />
        </mxCell>
        <mxCell id="SLb6tqs1ZrY8k5B9FdxR-52" style="edgeStyle=orthogonalEdgeStyle;rounded=0;orthogonalLoop=1;jettySize=auto;html=1;entryX=0.5;entryY=0;entryDx=0;entryDy=0;" edge="1" parent="1" source="SLb6tqs1ZrY8k5B9FdxR-44" target="SLb6tqs1ZrY8k5B9FdxR-46">
          <mxGeometry relative="1" as="geometry" />
        </mxCell>
        <mxCell id="SLb6tqs1ZrY8k5B9FdxR-44" value="&lt;div&gt;&lt;b&gt;ceck_for_windrives(&lt;/b&gt;list: raw_drives&lt;b&gt;)&lt;/b&gt;&lt;/div&gt;&lt;div&gt;Prints out a list of connected target drives. Drives can be selected by typeing the number of the order they are printed in. ie. selecting drive 0 will select and target the first drive that was printed out.&lt;br&gt;&lt;b&gt;&lt;/b&gt;&lt;/div&gt;" style="rounded=1;whiteSpace=wrap;html=1;absoluteArcSize=1;arcSize=14;strokeWidth=2;fontSize=11;" vertex="1" parent="1">
          <mxGeometry x="-1160" y="1480" width="240" height="110" as="geometry" />
        </mxCell>
        <mxCell id="SLb6tqs1ZrY8k5B9FdxR-53" style="edgeStyle=orthogonalEdgeStyle;rounded=0;orthogonalLoop=1;jettySize=auto;html=1;entryX=0.5;entryY=0;entryDx=0;entryDy=0;" edge="1" parent="1" source="SLb6tqs1ZrY8k5B9FdxR-45" target="SLb6tqs1ZrY8k5B9FdxR-47">
          <mxGeometry relative="1" as="geometry" />
        </mxCell>
        <mxCell id="SLb6tqs1ZrY8k5B9FdxR-45" value="&lt;div&gt;&lt;b&gt;ceck_for_windrives(&lt;/b&gt;list: raw_drives&lt;b&gt;)&lt;/b&gt;&lt;/div&gt;&lt;div&gt;Prints out a list of connected target drives. Drives can be selected by typeing the number of the order they are printed in. ie. selecting drive 0 will select and target the first drive that was printed out.&lt;br&gt;&lt;b&gt;&lt;/b&gt;&lt;/div&gt;" style="rounded=1;whiteSpace=wrap;html=1;absoluteArcSize=1;arcSize=14;strokeWidth=2;fontSize=11;" vertex="1" parent="1">
          <mxGeometry x="-880" y="1480" width="240" height="110" as="geometry" />
        </mxCell>
        <mxCell id="SLb6tqs1ZrY8k5B9FdxR-46" value="&lt;b&gt;copy_registries()&lt;/b&gt;" style="rounded=1;whiteSpace=wrap;html=1;absoluteArcSize=1;arcSize=14;strokeWidth=2;fontSize=11;" vertex="1" parent="1">
          <mxGeometry x="-1160" y="1700" width="240" height="110" as="geometry" />
        </mxCell>
        <mxCell id="SLb6tqs1ZrY8k5B9FdxR-47" value="&lt;b&gt;pretty_print&lt;/b&gt;(connected_drives)" style="rounded=1;whiteSpace=wrap;html=1;absoluteArcSize=1;arcSize=14;strokeWidth=2;fontSize=11;" vertex="1" parent="1">
          <mxGeometry x="-880" y="1700" width="240" height="110" as="geometry" />
        </mxCell>
        <mxCell id="SLb6tqs1ZrY8k5B9FdxR-48" value="&lt;b&gt;get_sticky_shell()&lt;/b&gt;" style="rounded=1;whiteSpace=wrap;html=1;absoluteArcSize=1;arcSize=14;strokeWidth=2;fontSize=11;" vertex="1" parent="1">
          <mxGeometry x="-600" y="1700" width="240" height="110" as="geometry" />
        </mxCell>
        <mxCell id="SLb6tqs1ZrY8k5B9FdxR-49" value="&lt;b&gt;revert_sticky_shell()&lt;/b&gt;" style="rounded=1;whiteSpace=wrap;html=1;absoluteArcSize=1;arcSize=14;strokeWidth=2;fontSize=11;" vertex="1" parent="1">
          <mxGeometry x="-200" y="1700" width="240" height="110" as="geometry" />
        </mxCell>
        <mxCell id="SLb6tqs1ZrY8k5B9FdxR-50" value="&lt;b&gt;implant_SYSTEM_shell()&lt;/b&gt;" style="rounded=1;whiteSpace=wrap;html=1;absoluteArcSize=1;arcSize=14;strokeWidth=2;fontSize=11;" vertex="1" parent="1">
          <mxGeometry x="80" y="1700" width="240" height="110" as="geometry" />
        </mxCell>
        <mxCell id="SLb6tqs1ZrY8k5B9FdxR-51" value="&lt;b&gt;copy_registries()&lt;/b&gt;" style="rounded=1;whiteSpace=wrap;html=1;absoluteArcSize=1;arcSize=14;strokeWidth=2;fontSize=11;" vertex="1" parent="1">
          <mxGeometry x="360" y="1700" width="240" height="110" as="geometry" />
        </mxCell>
      </root>
    </mxGraphModel>
  </diagram>
</mxfile>
